HIERARCHY
ROOT Hips
{
  OFFSET -125.086 92.215 135.881
  CHANNELS 6 Xposition Yposition Zposition Zrotation Xrotation Yrotation
  JOINT LeftUpLeg
  {
    OFFSET 8.64259 1.95398 -2.38835
    CHANNELS 3 Zrotation Xrotation Yrotation
    JOINT LeftLeg
    {
      OFFSET 43.7702 0 0
      CHANNELS 3 Zrotation Xrotation Yrotation
      JOINT LeftFoot
      {
        OFFSET 40.6238 0 0
        CHANNELS 3 Zrotation Xrotation Yrotation
        JOINT LeftToeBase
        {
          OFFSET 12.7242 0 0
          CHANNELS 3 Zrotation Xrotation Yrotation
          End Site
          {
            OFFSET 0 0 0
          }
        }
      }
    }
  }
  JOINT RightUpLeg
  {
    OFFSET -8.2249 1.95398 -2.59336
    CHANNELS 3 Zrotation Xrotation Yrotation
    JOINT RightLeg
    {
      OFFSET 43.5653 0 0
      CHANNELS 3 Zrotation Xrotation Yrotation
      JOINT RightFoot
      {
        OFFSET 40.6238 0 0
        CHANNELS 3 Zrotation Xrotation Yrotation
        JOINT RightToeBase
        {
          OFFSET 12.7242 0 0
          CHANNELS 3 Zrotation Xrotation Yrotation
          End Site
          {
            OFFSET 0 0 0
          }
        }
      }
    }
  }
  JOINT Spine
  {
    OFFSET 0.165834 0.87714 6.61349
    CHANNELS 3 Zrotation Xrotation Yrotation
    JOINT Spine1
    {
      OFFSET 7.38963 1.71661e-005 0
      CHANNELS 3 Zrotation Xrotation Yrotation
      JOINT Spine2
      {
        OFFSET 11.9445 1.14441e-005 0
        CHANNELS 3 Zrotation Xrotation Yrotation
        JOINT Spine3
        {
          OFFSET 14.7254 4.19617e-005 0
          CHANNELS 3 Zrotation Xrotation Yrotation
          JOINT Spine4
          {
            OFFSET 10.9679 0 0
            CHANNELS 3 Zrotation Xrotation Yrotation
            JOINT RightShoulder
            {
              OFFSET 2.46616 -1.6653 3.69651
              CHANNELS 3 Zrotation Xrotation Yrotation
              JOINT RightArm
              {
                OFFSET 13.0012 0 0
                CHANNELS 3 Zrotation Xrotation Yrotation
                JOINT RightForeArm
                {
                  OFFSET 28.7848 1.52588e-005 0
                  CHANNELS 3 Zrotation Xrotation Yrotation
                  JOINT RightHand
                  {
                    OFFSET 26.5688 1.52588e-005 0
                    CHANNELS 3 Zrotation Xrotation Yrotation
                    End Site
                    {
                      OFFSET 0 0 0
                    }
                  }
                }
              }
            }
            JOINT LeftShoulder
            {
              OFFSET 2.38034 -1.29275 -3.7523
              CHANNELS 3 Zrotation Xrotation Yrotation
              JOINT LeftArm
              {
                OFFSET 16.3182 6.10352e-005 0
                CHANNELS 3 Zrotation Xrotation Yrotation
                JOINT LeftForeArm
                {
                  OFFSET 27.0901 0 0
                  CHANNELS 3 Zrotation Xrotation Yrotation
                  JOINT LeftHand
                  {
                    OFFSET 24.5451 1.52588e-005 0
                    CHANNELS 3 Zrotation Xrotation Yrotation
                    End Site
                    {
                      OFFSET 0 0 0
                    }
                  }
                }
              }
            }
            JOINT Neck
            {
              OFFSET 5.0226 -0.0266342 0
              CHANNELS 3 Zrotation Xrotation Yrotation
              JOINT Head
              {
                OFFSET 6.69363 2.86102e-005 0
                CHANNELS 3 Zrotation Xrotation Yrotation
                End Site
                {
                  OFFSET 0 0 0
                }
              }
            }
          }
        }
      }
    }
  }
}
MOTION
Frames:	6
Frame Time:	0.0416667
-12.8662 75.7917 -71.226 67.0372 -59.4116 64.1099 -150.354 67.1268 78.2395 -57.6842 16.6366 -7.07151 53.4265 0.590632 11.9909 35.3561 -0.512068 -0.868429 176.566 51.2487 72.1835 -92.5374 -14.057 -3.13132 77.5321 -8.37433 13.2123 69.022 -5.74368 2.24995 0.309135 14.9368 -89.5816 -3.00375 0.757578 0.876279 -14.6747 0.795398 0.842086 -37.2083 0.459204 1.06343 -17.1957 0.459206 1.06343 93.7604 -27.2348 -100.183 22.2042 14.0943 -82.9682 -4.60517 -3.65961 -8.73279 1.17725 -0.0504501 -6.55114 -91.7633 -31.2167 70.1789 -22.3698 0.0672938 -85.3871 5.42586 -21.4675 -3.77836 4.64616 -0.498001 -11.007 -77.201 2.66956 -10.206 101.37 11.7855 12.6341 
-0.413143 77.0389 -58.9942 62.1183 -58.317 63.7564 -150.414 66.9341 78.2768 -75.5514 13.6276 -3.10407 64.4142 8.55916 10.3993 46.4044 -1.18857 5.46396 174.197 41.9082 71.8771 -87.8263 -19.0611 -3.15297 59.6272 -0.84065 13.2314 73.8064 -4.11519 9.02009 0.663134 14.4849 -89.602 -2.10379 1.45857 0.883106 -13.7741 1.49602 0.818045 -36.3113 1.12575 1.28063 -16.2987 1.12575 1.28065 92.9844 -36.2911 -99.2646 22.5951 9.30511 -75.764 -1.97833 -8.5525 -10.8514 -12.2909 -0.351322 -1.51442 -91.7989 -32.2791 70.4994 -26.5706 6.93319 -80.7354 4.12555 -19.3666 -3.02555 12.2728 -0.738978 -9.36132 -70.7558 5.70986 -12.2962 96.7567 14.6311 12.9321 
10.3696 79.3455 -47.0342 56.6474 -54.5497 60.7805 -155.69 60.6083 80.9855 -77.9684 22.5575 -2.42432 64.6265 11.1273 21.5265 61.6682 -0.636481 12.8415 174.682 41.3457 74.342 -89.9809 -19.8172 -3.40649 41.9178 6.42602 13.3175 26.6268 0.616898 -1.97387 0.669693 13.6143 -89.3979 -0.365476 1.55625 1.24236 -12.036 1.60942 1.17265 -34.5707 1.11097 1.65258 -14.5581 1.11097 1.6526 95.7182 -40.4308 -93.5882 25.1899 3.74235 -65.2515 -3.44524 -11.8383 -22.2801 -11.783 -0.434963 -0.885226 -88.8924 -34.6898 76.5726 -35.8552 11.8837 -73.0309 5.58275 -6.2171 -11.0616 10.894 -0.729849 -9.6274 -42.7554 -2.28041 1.04941 69.7313 1.27459 5.09486 
20.8632 83.4561 -34.6745 48.6288 -49.8051 55.5398 -162.279 50.2487 85.5358 -68.1917 24.4889 -3.04255 66.8588 13.0367 21.8311 66.6881 0.259273 15.9745 164.413 51.2841 86.9743 -93.9337 -13.4952 -1.58119 52.0567 1.86852 9.90189 22.2903 2.16868 -8.27025 0.525316 12.6202 -89.5232 1.62518 1.23124 0.962755 -10.0455 1.27242 0.907631 -32.5803 0.884997 1.28826 -12.5676 0.884995 1.28827 100.314 -45.0543 -85.2451 23.173 0.770664 -54.1069 -9.66761 -11.5952 -49.3256 -13.6921 -0.412529 -1.74743 -83.8664 -34.0007 85.6579 -45.7498 15.0657 -64.1937 13.225 8.93321 -30.3257 3.20508 -0.341271 -10.0571 -36.9005 4.10383 -12.3923 65.8792 13.0005 15.6421 
32.0151 87.6023 -22.4265 45.5925 -47.2977 55.2798 -168.759 36.8924 90.1853 -54.7376 23.1854 -2.02458 63.983 8.27668 13.4547 70.2145 0.287541 15.3023 143.701 56.5252 106.285 -84.4672 -13.3864 3.60287 61.0279 0.672767 21.4401 41.8711 -1.96843 3.62207 0.344428 11.778 -90.2527 3.31864 0.587669 -0.49101 -8.35227 0.565479 -0.516408 -30.8882 0.708071 -0.291685 -10.8755 0.708071 -0.291693 104.902 -44.5373 -77.5828 26.861 -2.06064 -45.5382 -23.1251 -8.01751 -75.0362 -11.1239 -0.435542 -0.653424 -80.317 -34.2123 92.2423 -41.3887 16.3575 -56.2407 9.58025 9.61177 -45.5603 -2.13212 -0.108112 -12.7433 -17.011 6.33658 -22.8809 39.7722 18.3545 29.7112 
44.1524 91.4521 -8.37887 44.2906 -48.5113 53.0601 -174.96 19.2519 90.1034 -36.5359 17.2592 1.46864 45.5059 -4.59885 -8.17157 71.1126 -1.71104 8.36486 146.454 57.3408 107.991 -58.1072 -16.4985 11.1486 61.0202 1.74522 23.7542 70.984 -3.26486 12.7977 0.160395 10.9209 -90.4841 5.03087 0.121143 -0.955275 -6.64043 0.0789793 -0.959693 -29.1731 0.402627 -0.874719 -9.16047 0.402626 -0.874721 104.933 -40.9825 -77.3017 27.0937 -9.70742 -35.7896 -22.6813 -1.03264 -85.6307 -18.2011 -0.564239 -1.6477 -79.5196 -38.6235 93.9121 -31.5025 15.3199 -43.3234 1.43413 6.16124 -55.8927 -0.479164 -0.287694 -16.2755 -12.6981 7.03746 -25.5441 25.869 18.0527 37.736 
